<?xml version="1.0" standalone="no"?>
<!DOCTYPE svg PUBLIC "-//W3C//DTD SVG 20010904//EN"
 "http://www.w3.org/TR/2001/REC-SVG-20010904/DTD/svg10.dtd">
<svg version="1.0" xmlns="http://www.w3.org/2000/svg"
 width="200.000000pt" height="200.000000pt" viewBox="0 0 200.000000 200.000000"
 preserveAspectRatio="xMidYMid meet">

<g transform="translate(0.000000,200.000000) scale(0.100000,-0.100000)"
fill="#000000" stroke="none">
<path d="M1911 1984 c-2 -50 46 -114 84 -114 16 0 1 18 -22 26 -19 7 -31 22
-44 59 -10 29 -18 41 -18 29z"/>
<path d="M1660 1976 c0 -2 7 -7 16 -10 8 -3 12 -2 9 4 -6 10 -25 14 -25 6z"/>
<path d="M618 1943 c6 -2 18 -2 25 0 6 3 1 5 -13 5 -14 0 -19 -2 -12 -5z"/>
<path d="M157 1929 c-17 -10 -15 -29 4 -29 6 0 7 4 4 10 -3 5 0 7 8 4 8 -3 20
2 27 11 10 13 9 15 -6 15 -11 0 -27 -5 -37 -11z"/>
<path d="M1642 1924 c10 -10 20 -15 24 -12 3 4 -5 12 -18 18 -22 12 -22 12 -6
-6z"/>
<path d="M0 1919 c0 -5 5 -7 10 -4 5 3 10 8 10 11 0 2 -4 4 -10 4 -5 0 -10 -5
-10 -11z"/>
<path d="M602 1883 l1 -48 4 43 c4 36 7 42 28 42 14 0 25 -7 28 -17 4 -14 5
-12 6 5 1 19 -4 22 -34 22 l-35 0 2 -47z"/>
<path d="M838 1923 c7 -3 16 -2 19 1 4 3 -2 6 -13 5 -11 0 -14 -3 -6 -6z"/>
<path d="M1228 1923 c7 -3 16 -2 19 1 4 3 -2 6 -13 5 -11 0 -14 -3 -6 -6z"/>
<path d="M1337 1836 c-25 -60 -37 -105 -35 -126 3 -31 4 -32 18 -15 9 11 10
16 3 11 -8 -4 -13 -1 -13 8 0 19 11 21 27 5 9 -9 16 -2 27 26 9 21 16 44 16
51 0 8 9 34 21 59 23 49 20 75 -8 75 -13 0 -28 -25 -56 -94z"/>
<path d="M690 1903 c0 -11 3 -14 8 -7 4 6 14 14 22 17 10 4 8 6 -7 6 -16 1
-23 -5 -23 -16z"/>
<path d="M928 1913 c6 -2 18 -2 25 0 6 3 1 5 -13 5 -14 0 -19 -2 -12 -5z"/>
<path d="M752 1885 c0 -16 2 -22 5 -12 2 9 2 23 0 30 -3 6 -5 -1 -5 -18z"/>
<path d="M808 1903 c30 -4 32 -7 32 -43 0 -36 -2 -39 -32 -43 -32 -4 -32 -4 5
-5 l37 -2 0 50 0 50 -37 -2 c-37 -1 -37 -1 -5 -5z"/>
<path d="M1028 1903 c7 -3 16 -2 19 1 4 3 -2 6 -13 5 -11 0 -14 -3 -6 -6z"/>
<path d="M1191 1888 c-1 -20 14 -24 25 -6 4 6 3 8 -4 4 -5 -3 -13 0 -15 6 -3
8 -6 6 -6 -4z"/>
<path d="M1600 1895 c0 -2 10 -10 23 -16 20 -11 21 -11 8 4 -13 16 -31 23 -31
12z"/>
<path d="M390 1879 c0 -11 9 -16 25 -16 14 0 25 3 25 7 0 5 -8 7 -17 6 -10 -2
-21 2 -25 8 -5 7 -8 5 -8 -5z"/>
<path d="M713 1875 c0 -8 4 -12 9 -9 5 3 6 10 3 15 -9 13 -12 11 -12 -6z"/>
<path d="M781 1874 c0 -11 3 -14 6 -6 3 7 2 16 -1 19 -3 4 -6 -2 -5 -13z"/>
<path d="M1025 1879 c-11 -16 -1 -19 13 -3 7 8 8 14 3 14 -5 0 -13 -5 -16 -11z"/>
<path d="M1480 1883 c0 -19 21 -27 33 -13 9 10 9 11 -2 5 -8 -4 -17 -2 -22 6
-6 9 -9 10 -9 2z"/>
<path d="M805 1871 c-3 -5 -2 -12 3 -15 5 -3 9 1 9 9 0 17 -3 19 -12 6z"/>
<path d="M660 1857 c0 -8 -10 -18 -22 -20 l-23 -4 23 -2 c22 -1 41 23 28 36
-3 4 -6 -1 -6 -10z"/>
<path d="M882 1850 c0 -14 2 -19 5 -12 2 6 2 18 0 25 -3 6 -5 1 -5 -13z"/>
<path d="M681 1843 c-1 -18 4 -23 22 -22 15 1 17 3 5 6 -9 2 -19 12 -21 21 -3
12 -5 10 -6 -5z"/>
<path d="M900 1835 c0 -8 4 -15 10 -15 5 0 7 7 4 15 -4 8 -8 15 -10 15 -2 0
-4 -7 -4 -15z"/>
<path d="M1053 1831 c0 -11 5 -18 9 -15 4 3 5 11 1 19 -7 21 -12 19 -10 -4z"/>
<path d="M1571 1847 c2 -1 13 -9 24 -17 19 -14 19 -14 6 3 -7 9 -18 17 -24 17
-6 0 -8 -1 -6 -3z"/>
<path d="M1617 1779 c-15 -27 -25 -49 -22 -49 6 0 58 90 54 95 -2 2 -16 -19
-32 -46z"/>
<path d="M1830 1816 c0 -15 73 -36 122 -35 l53 1 -70 13 c-38 7 -78 16 -87 20
-10 4 -18 4 -18 1z"/>
<path d="M1029 1798 c7 -10 23 -17 35 -17 20 1 20 2 1 6 -11 3 -27 10 -35 17
-13 10 -13 9 -1 -6z"/>
<path d="M1545 1790 c3 -5 11 -10 16 -10 6 0 7 5 4 10 -3 6 -11 10 -16 10 -6
0 -7 -4 -4 -10z"/>
<path d="M84 1769 c-3 -6 -2 -15 3 -20 5 -5 9 -1 9 11 0 23 -2 24 -12 9z"/>
<path d="M460 1765 c-7 -9 -11 -17 -9 -20 3 -2 10 5 17 15 14 24 10 26 -8 5z"/>
<path d="M247 1759 c-26 -15 -11 -30 18 -17 13 6 22 15 19 19 -7 11 -15 11
-37 -2z"/>
<path d="M1765 1740 c3 -5 8 -10 11 -10 2 0 4 5 4 10 0 6 -5 10 -11 10 -5 0
-7 -4 -4 -10z"/>
<path d="M870 1714 c0 -18 4 -20 28 -16 22 5 24 7 7 10 -11 2 -23 9 -27 16 -5
6 -8 3 -8 -10z"/>
<path d="M798 1713 c7 -3 16 -2 19 1 4 3 -2 6 -13 5 -11 0 -14 -3 -6 -6z"/>
<path d="M1787 1709 c7 -7 15 -10 18 -7 3 3 -2 9 -12 12 -14 6 -15 5 -6 -5z"/>
<path d="M960 1699 c0 -5 11 -9 25 -9 14 0 25 2 25 4 0 2 -11 6 -25 8 -14 3
-25 1 -25 -3z"/>
<path d="M1970 1701 c0 -5 -3 -17 -7 -27 -4 -12 -3 -15 5 -10 8 5 12 -3 13
-26 l1 -33 9 40 c5 21 7 45 5 52 -6 15 -26 18 -26 4z"/>
<path d="M1050 1676 c0 -2 9 -6 20 -9 11 -3 18 -1 14 4 -5 9 -34 13 -34 5z"/>
<path d="M1050 1649 c0 -5 5 -7 10 -4 6 3 10 8 10 11 0 2 -4 4 -10 4 -5 0 -10
-5 -10 -11z"/>
<path d="M1730 1640 c-9 -6 -10 -10 -3 -10 6 0 15 5 18 10 8 12 4 12 -15 0z"/>
<path d="M1775 1630 c3 -5 8 -10 11 -10 2 0 4 5 4 10 0 6 -5 10 -11 10 -5 0
-7 -4 -4 -10z"/>
<path d="M1058 1623 c7 -3 16 -2 19 1 4 3 -2 6 -13 5 -11 0 -14 -3 -6 -6z"/>
<path d="M96 1531 c-3 -5 3 -11 13 -14 14 -3 18 -1 14 9 -6 16 -19 18 -27 5z"/>
<path d="M818 1533 c-1 -5 -2 -37 -3 -72 0 -64 0 -65 -31 -71 -25 -6 -31 -4
-30 9 1 20 -47 43 -92 43 -35 0 -72 -28 -72 -54 0 -9 30 -40 114 -114 22 -19
26 -28 17 -37 -17 -17 -46 5 -46 34 0 30 -30 37 -44 10 -14 -25 1 -66 29 -81
11 -6 37 -10 58 -8 29 2 40 9 50 30 19 39 -6 80 -73 124 -30 19 -55 39 -55 44
0 13 47 13 55 0 3 -5 15 -10 26 -10 12 0 19 -7 19 -20 0 -22 10 -24 57 -11 31
9 33 8 38 -22 2 -18 6 -48 7 -67 3 -30 7 -35 28 -35 27 0 26 -3 19 95 l-4 45
45 3 c50 4 72 16 64 37 -4 10 -22 13 -62 12 l-57 -2 -6 51 c-4 29 -10 57 -13
63 -8 12 -35 15 -38 4z"/>
<path d="M1284 1530 c-8 -8 -9 -24 -3 -48 12 -53 11 -82 -3 -86 -7 -3 -25 -7
-40 -10 -20 -5 -28 -13 -28 -27 0 -18 4 -20 45 -14 49 8 52 4 57 -80 2 -32 7
-41 24 -43 28 -4 34 14 23 69 -15 78 -15 78 44 81 44 3 52 6 52 23 0 18 -6 20
-56 17 l-55 -4 -10 64 c-9 63 -26 82 -50 58z"/>
<path d="M1709 1493 c-11 -15 -11 -16 1 -5 17 14 34 16 25 2 -3 -6 1 -7 10 -3
13 5 14 7 3 14 -19 12 -24 11 -39 -8z"/>
<path d="M1790 1450 c0 -6 7 -10 15 -10 8 0 15 2 15 4 0 2 -7 6 -15 10 -8 3
-15 1 -15 -4z"/>
<path d="M1095 1438 c-60 -21 -125 -100 -125 -152 0 -52 85 -59 130 -11 l23
25 19 -30 c19 -32 63 -41 86 -18 22 22 14 41 -13 34 -18 -5 -27 -1 -35 13 -15
29 -12 68 5 75 23 8 18 32 -11 55 -30 23 -36 24 -79 9z m45 -44 c0 -13 -63
-95 -81 -104 -22 -12 -39 -6 -39 16 0 25 70 94 96 94 13 0 24 -3 24 -6z"/>
<path d="M1812 1410 c-17 -27 -15 -35 4 -16 8 9 14 21 12 26 -2 6 -9 1 -16
-10z"/>
<path d="M42 1162 c-21 -7 -2 -22 26 -21 15 0 21 3 14 6 -6 2 -10 8 -8 12 6 8
-12 10 -32 3z"/>
<path d="M81 964 c0 -11 3 -14 6 -6 3 7 2 16 -1 19 -3 4 -6 -2 -5 -13z"/>
<path d="M1075 913 c12 -89 13 -85 -30 -97 -24 -7 -41 -19 -43 -29 -3 -16 2
-17 46 -11 l50 6 7 -66 c8 -70 13 -80 40 -70 14 6 16 16 10 75 -8 75 -9 74 70
81 20 2 31 9 33 21 3 16 -3 18 -50 16 -30 -1 -60 1 -66 5 -7 4 -12 25 -12 46
0 54 -8 70 -37 70 -24 0 -25 -2 -18 -47z"/>
<path d="M977 883 c-11 -3 -27 -23 -37 -45 -17 -39 -18 -39 -24 -14 -4 17 -13
26 -26 26 -28 0 -32 -15 -14 -57 8 -21 21 -65 28 -98 10 -48 17 -60 32 -60 17
0 20 10 25 85 7 112 12 123 56 115 26 -5 35 -2 40 11 11 30 -31 50 -80 37z"/>
<path d="M1513 872 c-9 -6 -11 -32 -5 -102 6 -85 9 -95 27 -95 14 0 22 10 28
35 22 91 28 110 37 110 14 0 26 -28 41 -94 13 -58 31 -78 51 -58 24 24 -26
183 -63 203 -24 13 -55 -3 -65 -33 -8 -22 -8 -22 -13 6 -6 31 -19 40 -38 28z"/>
<path d="M674 841 c-39 -29 -84 -95 -84 -123 0 -54 69 -66 126 -23 20 15 36
25 37 24 31 -59 49 -69 85 -49 36 21 36 46 0 42 -18 -2 -30 4 -37 17 -16 28
-13 61 4 67 21 8 19 37 -3 57 -29 26 -82 21 -128 -12z m90 -19 c8 -14 -84
-112 -105 -112 -23 0 -24 12 -4 49 25 49 93 88 109 63z"/>
<path d="M379 829 c-38 -23 -69 -65 -69 -96 0 -34 37 -63 81 -63 44 0 71 11
108 44 l23 21 -7 -45 c-15 -104 -46 -148 -79 -114 -9 8 -16 20 -16 25 0 17
-45 5 -48 -13 -4 -21 33 -55 71 -64 70 -15 112 66 118 226 l4 95 -75 2 c-61 2
-82 -2 -111 -18z m99 -25 c30 -9 28 -20 -12 -60 -34 -34 -87 -47 -101 -23 -13
21 5 57 37 72 37 18 43 19 76 11z"/>
<path d="M1325 838 c-21 -12 -95 -84 -95 -93 0 -5 13 -22 56 -69 18 -21 32
-26 69 -26 74 0 142 37 117 62 -8 8 -21 6 -45 -6 -40 -18 -70 -20 -98 -6 -33
18 -21 29 42 36 89 10 112 42 64 89 -26 27 -75 33 -110 13z m65 -38 c19 -12
13 -16 -39 -25 -46 -8 -51 8 -7 25 27 11 28 11 46 0z"/>
<path d="M70 791 c0 -5 7 -12 16 -15 14 -5 15 -4 4 9 -14 17 -20 19 -20 6z"/>
<path d="M113 723 c0 -25 1 -29 4 -13 3 14 10 31 15 38 8 8 6 12 -4 12 -9 0
-14 -12 -15 -37z"/>
<path d="M52 730 c7 -14 14 -27 15 -28 1 -2 10 1 20 8 11 6 12 10 3 7 -8 -2
-23 6 -33 17 -18 21 -18 21 -5 -4z"/>
<path d="M338 543 c7 -3 16 -2 19 1 4 3 -2 6 -13 5 -11 0 -14 -3 -6 -6z"/>
<path d="M1771 523 c0 -13 -7 -23 -13 -23 -15 -1 21 -30 36 -30 5 0 1 7 -10
15 -26 20 -11 18 66 -5 36 -11 73 -17 83 -14 10 3 24 0 32 -6 9 -8 15 -8 15
-2 0 14 -29 24 -52 16 -13 -4 -25 1 -34 13 -9 10 -13 12 -9 6 8 -16 9 -16 -52
2 -32 9 -53 22 -56 33 -3 12 -5 11 -6 -5z"/>
<path d="M1800 522 c8 -5 26 -13 40 -16 17 -5 20 -4 10 2 -8 5 -26 13 -40 16
-17 5 -20 4 -10 -2z"/>
<path d="M1240 500 c0 -5 5 -10 11 -10 5 0 7 5 4 10 -3 6 -8 10 -11 10 -2 0
-4 -4 -4 -10z"/>
<path d="M220 491 c0 -5 7 -11 14 -14 10 -4 13 -1 9 9 -6 15 -23 19 -23 5z"/>
<path d="M1270 476 c0 -2 7 -6 15 -10 8 -3 15 -1 15 4 0 6 -7 10 -15 10 -8 0
-15 -2 -15 -4z"/>
<path d="M1558 463 c6 -2 9 -10 6 -15 -4 -7 -2 -8 5 -4 6 4 19 2 27 -5 12 -10
15 -10 12 2 -4 19 -19 29 -43 28 -11 0 -14 -3 -7 -6z"/>
<path d="M1828 458 c5 -5 16 -8 23 -6 8 3 3 7 -10 11 -17 4 -21 3 -13 -5z"/>
<path d="M80 456 c0 -2 9 -6 20 -9 11 -3 18 -1 14 4 -5 9 -34 13 -34 5z"/>
<path d="M643 453 c9 -2 25 -2 35 0 9 3 1 5 -18 5 -19 0 -27 -2 -17 -5z"/>
<path d="M748 453 c12 -2 30 -2 40 0 9 3 -1 5 -23 4 -22 0 -30 -2 -17 -4z"/>
<path d="M1281 437 c-1 -12 -6 -16 -13 -11 -10 5 -10 4 -1 -6 16 -17 26 -8 20
17 -4 17 -5 17 -6 0z"/>
<path d="M1870 446 c0 -2 18 -6 39 -8 22 -2 37 0 35 4 -5 8 -74 11 -74 4z"/>
<path d="M447 410 c8 -9 9 -19 2 -32 -5 -10 -7 -18 -5 -18 3 0 10 9 15 19 8
14 7 22 -7 32 -14 11 -15 11 -5 -1z"/>
<path d="M585 402 c-28 -23 -37 -50 -25 -73 8 -13 6 -32 -5 -68 -22 -64 -8
-116 41 -160 33 -30 40 -33 102 -32 90 1 102 3 102 14 0 5 7 4 15 -3 13 -11
14 -10 10 2 -4 9 6 33 20 54 23 34 26 46 21 94 -8 83 -8 84 -1 106 4 13 1 27
-9 36 -8 9 -12 18 -9 22 13 12 -54 6 -72 -8 -20 -15 -55 -10 -55 8 0 8 -2 8
-8 0 -12 -18 -50 -23 -63 -8 -6 8 -20 14 -31 14 -10 0 -16 5 -13 10 9 14 3 12
-20 -8z m172 -57 c12 -3 36 -22 52 -41 25 -28 31 -44 31 -80 0 -93 -52 -140
-147 -132 -87 7 -134 69 -119 153 8 41 56 91 99 104 32 9 41 8 84 -4z"/>
<path d="M700 279 c0 -5 5 -7 10 -4 6 3 10 8 10 11 0 2 -4 4 -10 4 -5 0 -10
-5 -10 -11z"/>
<path d="M650 256 c0 -2 8 -10 18 -17 15 -13 16 -12 3 4 -13 16 -21 21 -21 13z"/>
<path d="M693 225 c-3 -9 -3 -18 -1 -21 3 -3 8 4 11 16 6 23 -1 27 -10 5z"/>
<path d="M709 193 c-13 -16 -12 -17 4 -4 16 13 21 21 13 21 -2 0 -10 -8 -17
-17z"/>
<path d="M130 395 c-11 -13 -10 -14 4 -9 9 3 16 10 16 15 0 13 -6 11 -20 -6z"/>
<path d="M356 358 l-35 -53 21 -17 c30 -26 42 -22 72 22 14 21 20 37 13 34
-20 -7 -51 21 -44 40 4 10 12 14 18 10 8 -4 9 -3 5 4 -11 18 -14 16 -50 -40z"/>
<path d="M1362 351 c-110 -43 -140 -73 -87 -84 23 -4 213 57 230 75 4 4 4 16
0 27 -9 29 -33 26 -143 -18z"/>
<path d="M1086 371 c-3 -4 3 -16 14 -26 16 -14 23 -16 32 -7 9 9 7 15 -8 27
-22 17 -31 18 -38 6z"/>
<path d="M931 354 c0 -11 3 -14 6 -6 3 7 2 16 -1 19 -3 4 -6 -2 -5 -13z"/>
<path d="M1785 294 c26 -20 75 -46 75 -39 0 6 -77 55 -87 55 -5 0 1 -8 12 -16z"/>
<path d="M1869 303 c-1 -5 0 -16 1 -26 2 -26 -18 -47 -46 -47 -34 0 -58 -41
-50 -85 13 -65 97 -130 143 -110 10 5 24 7 30 6 7 -1 22 3 33 9 18 9 20 21 20
100 0 81 -2 90 -21 101 -12 6 -37 9 -55 7 -31 -4 -34 -2 -34 24 0 24 -18 42
-21 21z"/>
<path d="M1039 253 c-13 -16 -12 -17 4 -4 16 13 21 21 13 21 -2 0 -10 -8 -17
-17z"/>
<path d="M1610 255 c0 -8 4 -15 10 -15 5 0 7 7 4 15 -4 8 -8 15 -10 15 -2 0
-4 -7 -4 -15z"/>
<path d="M1560 251 c0 -6 4 -13 10 -16 6 -3 7 1 4 9 -7 18 -14 21 -14 7z"/>
<path d="M1456 217 c3 -10 9 -15 12 -12 3 3 0 11 -7 18 -10 9 -11 8 -5 -6z"/>
<path d="M153 213 c9 -2 23 -2 30 0 6 3 -1 5 -18 5 -16 0 -22 -2 -12 -5z"/>
<path d="M1397 189 c4 -13 8 -18 11 -10 2 7 -1 18 -6 23 -8 8 -9 4 -5 -13z"/>
<path d="M1340 191 c0 -6 4 -13 10 -16 6 -3 7 1 4 9 -7 18 -14 21 -14 7z"/>
<path d="M1291 164 c0 -11 3 -14 6 -6 3 7 2 16 -1 19 -3 4 -6 -2 -5 -13z"/>
<path d="M1226 157 c3 -10 9 -15 12 -12 3 3 0 11 -7 18 -10 9 -11 8 -5 -6z"/>
<path d="M1170 141 c0 -6 4 -13 10 -16 6 -3 7 1 4 9 -7 18 -14 21 -14 7z"/>
<path d="M1122 120 c0 -14 2 -19 5 -12 2 6 2 18 0 25 -3 6 -5 1 -5 -13z"/>
<path d="M1095 120 c3 -5 8 -10 11 -10 2 0 4 5 4 10 0 6 -5 10 -11 10 -5 0 -7
-4 -4 -10z"/>
<path d="M417 100 c-12 -12 -15 -20 -8 -25 6 -3 12 -16 12 -28 1 -19 2 -19 6
-3 3 10 0 23 -6 29 -7 7 -5 14 7 23 9 7 15 14 12 17 -3 2 -13 -4 -23 -13z"/>
<path d="M1592 94 c-8 -18 -12 -45 -9 -60 3 -25 4 -24 6 8 0 20 6 38 12 40 6
2 10 13 7 23 -3 17 -6 15 -16 -11z"/>
<path d="M471 68 c-1 -12 -6 -16 -18 -11 -15 5 -14 3 2 -10 17 -13 20 -14 23
-1 2 8 1 20 -1 27 -3 7 -6 5 -6 -5z"/>
<path d="M1285 29 c50 -16 97 -28 105 -28 8 0 -25 14 -75 30 -49 16 -97 28
-105 28 -8 -1 26 -14 75 -30z"/>
</g>
</svg>
